# xmcd
#
# Track frame offsets:
#	150
#	14252
#	27367
#	37937
#	53165
#	67340
#	80012
#	94487
#	108137
#	124492
#	140460
#	160345
#	174822
#	191995
#	207435
#	219970
#	236762
#
# Disc length: 3420
#
# Revision: 2
# Processed by: cddbd v1.5.1PL0 Copyright (c) Steve Scherf et al.
# Submitted via: EasyCDDAExtractor 6.0.0.1
# Normalized: r1:DSETVAR1
#
DISCID=f60d5a11
DTITLE=Various Artist - CDX Volume 50 February 1993
DYEAR=1993
DGENRE=Country
TTITLE0=Tracy Lawrence - Alibis
TTITLE1=The Geezinlaws - Copenhagen
TTITLE2=George Strait - Heartland
TTITLE3=Hal Bruce - I'm Going Home
TTITLE4=Ricky Lynn Gregg - If I Had a Cheating Heart
TTITLE5=Clinton Gregory - Look Who's Needing Who
TTITLE6=Doug Stone - Made for Loving You
TTITLE7=Loudon Wainwright III - People in Love
TTITLE8=Dolly Parton - Romeo
TTITLE9=Toby Keith - Should've Been a Cowboy
TTITLE10=Nanci Griffith - Speed of the Sound of Loneliness
TTITLE11=Lee Roy Parnell - Tender Moment
TTITLE12=Michelle Wright - The Change
TTITLE13=Reba McEntire - The Heart Won't Lie
TTITLE14=John Gorka - When She Kisses Me
TTITLE15=Trisha Yearwood - You Say You Will
TTITLE16=Dan Baird - I Love You Period
EXTD=
EXTT0=
EXTT1=
EXTT2=
EXTT3=
EXTT4=
EXTT5=
EXTT6=
EXTT7=
EXTT8=
EXTT9=
EXTT10=
EXTT11=
EXTT12=
EXTT13=
EXTT14=
EXTT15=
EXTT16=
PLAYORDER=
